Format                                   : MPEG-4
Format profile                           : Base Media / Version 2
Codec ID                                 : mp42
File size                                : 237 MiB
Duration                                 : 45mn 29s
Overall bit rate mode                    : Variable
Overall bit rate                         : 727 Kbps
Encoded date                             : UTC 2013-05-15 21:15:53
Tagged date                              : UTC 2013-05-15 21:25:09
Writing application                      : HandBrake 5454svn 2013051301

Video
ID                                       : 1
Format                                   : AVC
Format/Info                              : Advanced Video Codec
Format profile                           : Main@L4.0
Format settings, CABAC                   : Yes
Format settings, ReFrames                : 4 frames
Codec ID                                 : avc1
Codec ID/Info                            : Advanced Video Coding
Duration                                 : 45mn 29s
Bit rate mode                            : Variable
Bit rate                                 : 563 Kbps
Width                                    : 720 pixels
Height                                   : 586 pixels
Display aspect ratio                     : 16:9
Frame rate mode                          : Variable
Frame rate                               : 25.000 fps
Minimum frame rate                       : 2.778 fps
Maximum frame rate                       : 125.000 fps
Color space                              : YUV
Chroma subsampling                       : 4:2:0
Bit depth                                : 8 bits
Scan type                                : Progressive
Bits/(Pixel*Frame)                       : 0.053
Stream size                              : 183 MiB (77%)
Writing library                          : x264 core 130
Encoding settings                        : cabac=1 / ref=1 / deblock=1:0:0 / .40 / aq=1:1.00
Encoded date                             : UTC 2013-05-15 21:15:53
Tagged date                              : UTC 2013-05-15 21:25:09
Color primaries                          : BT.601 PAL
Transfer characteristics                 : BT.709
Matrix coefficients                      : BT.601

Audio
ID                                       : 2
Format                                   : AAC
Format/Info                              : Advanced Audio Codec
Format profile                           : LC
Codec ID                                 : 40
Duration                                 : 45mn 29s
Bit rate mode                            : Variable
Bit rate                                 : 160 Kbps
Maximum bit rate                         : 210 Kbps
Channel(s)                               : 2 channels
Channel positions                        : Front: L R
Sampling rate                            : 48.0 KHz
Compression mode                         : Lossy
Delay relative to video                  : 182ms
Stream size                              : 52.1 MiB (22%)
Encoded date                             : UTC 2013-05-15 21:15:53
Tagged date                              : UTC 2013-05-15 21:25:09





Episode number: 1x3

Airdate: Wednesday May 15th, 2013


Ripped From Foxtel Australia Pay TV channel 115 Soho



Bea is caught up in the brutal rivalry between Franky and Jacs, while Erica struggles to gain the support of the officers.
 

 
http://www.imdb.com/title/tt2433738/